<?xml version="1.0" standalone="no"?>
<!DOCTYPE svg PUBLIC "-//W3C//DTD SVG 20010904//EN"
 "http://www.w3.org/TR/2001/REC-SVG-20010904/DTD/svg10.dtd">
<svg version="1.0" xmlns="http://www.w3.org/2000/svg"
 width="500.000000pt" height="500.000000pt" viewBox="0 0 500.000000 500.000000"
 preserveAspectRatio="xMidYMid meet">
<metadata>
Created by potrace 1.14, written by Peter Selinger 2001-2017
</metadata>
<g transform="translate(0.000000,500.000000) scale(0.100000,-0.100000)"
fill="#000000" stroke="none">
<path d="M0 2500 l0 -2500 2500 0 2500 0 0 2500 0 2500 -2500 0 -2500 0 0
-2500z m2755 985 c290 -34 513 -99 780 -229 434 -211 784 -542 1025 -966 83
-147 202 -432 186 -447 -8 -9 -7 -11 -56 117 -115 308 -279 565 -510 804 -427
441 -984 690 -1595 713 -731 28 -1450 -303 -1909 -877 -148 -186 -293 -442
-371 -657 -20 -57 -42 -103 -47 -103 -12 0 -7 15 49 160 176 458 517 869 944
1138 441 278 996 406 1504 347z m84 -170 c651 -102 1204 -476 1557 -1055 58
-96 141 -270 175 -368 31 -89 1 -53 -40 48 -208 515 -582 919 -1074 1160 -324
158 -655 229 -1022 217 -250 -8 -431 -41 -666 -123 -433 -150 -817 -452 -1083
-849 -77 -115 -180 -314 -222 -427 -16 -43 -32 -78 -36 -78 -12 0 -10 13 18
86 71 191 208 430 345 599 147 183 377 383 575 501 265 158 580 265 894 304
109 13 456 4 579 -15z m-213 -135 c506 -41 914 -217 1277 -550 188 -173 382
-451 481 -692 39 -94 40 -98 27 -98 -4 0 -16 21 -26 48 -50 132 -169 342 -264
467 -336 438 -794 708 -1338 790 -133 19 -423 20 -562 0 -350 -50 -689 -196
-976 -420 -91 -71 -278 -260 -346 -350 -104 -136 -228 -353 -281 -492 -9 -24
-21 -43 -27 -43 -6 0 -2 22 10 52 163 414 471 773 866 1008 286 171 587 261
948 283 28 2 57 4 66 5 9 1 74 -3 145 -8z m184 -179 c195 -34 363 -88 530
-171 360 -178 670 -487 849 -846 53 -107 67 -144 54 -144 -4 1 -34 53 -65 118
-258 530 -730 890 -1336 1018 -114 24 -149 27 -332 27 -218 0 -296 -9 -477
-58 -543 -146 -988 -516 -1223 -1018 -23 -48 -45 -87 -50 -87 -10 0 -6 14 33
100 41 91 119 220 193 320 326 438 815 712 1364 764 96 9 348 -4 460 -23z m36
-165 c457 -96 853 -366 1106 -756 63 -97 132 -229 124 -238 -8 -7 -9 -6 -45
66 -87 173 -190 309 -352 467 -180 175 -373 295 -602 374 -404 139 -799 134
-1199 -17 -363 -137 -702 -440 -888 -794 -28 -54 -55 -98 -60 -98 -15 0 5 43
72 159 273 475 721 775 1278 856 147 22 413 13 566 -19z m-31 -156 c322 -69
602 -223 820 -452 98 -103 183 -216 240 -320 55 -101 26 -82 -38 25 -140 233
-352 437 -597 574 -145 82 -372 153 -554 174 -137 16 -373 6 -501 -21 -369
-78 -709 -294 -928 -592 -50 -68 -131 -196 -140 -222 -2 -6 -8 -8 -12 -3 -10
9 21 66 96 177 261 382 663 625 1129 684 19 2 114 3 210 1 131 -3 200 -9 275
-25z m-75 -147 c191 -30 384 -108 558 -223 144 -96 335 -296 412 -431 33 -60
7 -46 -35 19 -61 92 -149 195 -232 272 -289 267 -728 409 -1103 356 -336 -47
-608 -181 -835 -411 -70 -71 -196 -234 -207 -267 -2 -6 -9 -9 -15 -7 -21 7 99
172 205 281 199 204 406 323 683 392 188 47 361 53 569 19z"/>
</g>
</svg>
